<svg id="visual" viewBox="0 0 900 400" width="900" height="400" xmlns="http://www.w3.org/2000/svg" xmlns:xlink="http://www.w3.org/1999/xlink" version="1.1"><path d="M0 216L11.5 213.5C23 211 46 206 69 205.3C92 204.7 115 208.3 138.2 205C161.3 201.7 184.7 191.3 207.8 184.5C231 177.7 254 174.3 277 173.7C300 173 323 175 346 184.5C369 194 392 211 415.2 217.2C438.3 223.3 461.7 218.7 484.8 211.5C508 204.3 531 194.7 554 197C577 199.3 600 213.7 623 211.7C646 209.7 669 191.3 692.2 194.5C715.3 197.7 738.7 222.3 761.8 231.3C785 240.3 808 233.7 831 224C854 214.3 877 201.7 888.5 195.3L900 189L900 401L888.5 401C877 401 854 401 831 401C808 401 785 401 761.8 401C738.7 401 715.3 401 692.2 401C669 401 646 401 623 401C600 401 577 401 554 401C531 401 508 401 484.8 401C461.7 401 438.3 401 415.2 401C392 401 369 401 346 401C323 401 300 401 277 401C254 401 231 401 207.8 401C184.7 401 161.3 401 138.2 401C115 401 92 401 69 401C46 401 23 401 11.5 401L0 401Z" fill="#eeeeee"></path><path d="M0 244L11.5 241.2C23 238.3 46 232.7 69 228.3C92 224 115 221 138.2 221.3C161.3 221.7 184.7 225.3 207.8 236.3C231 247.3 254 265.7 277 269C300 272.3 323 260.7 346 259.2C369 257.7 392 266.3 415.2 259.7C438.3 253 461.7 231 484.8 223.2C508 215.3 531 221.7 554 229.8C577 238 600 248 623 254.2C646 260.3 669 262.7 692.2 259.7C715.3 256.7 738.7 248.3 761.8 242.3C785 236.3 808 232.7 831 228.8C854 225 877 221 888.5 219L900 217L900 401L888.5 401C877 401 854 401 831 401C808 401 785 401 761.8 401C738.7 401 715.3 401 692.2 401C669 401 646 401 623 401C600 401 577 401 554 401C531 401 508 401 484.8 401C461.7 401 438.3 401 415.2 401C392 401 369 401 346 401C323 401 300 401 277 401C254 401 231 401 207.8 401C184.7 401 161.3 401 138.2 401C115 401 92 401 69 401C46 401 23 401 11.5 401L0 401Z" fill="#e4e4e4"></path><path d="M0 291L11.5 285.2C23 279.3 46 267.7 69 269C92 270.3 115 284.7 138.2 287.7C161.3 290.7 184.7 282.3 207.8 284.3C231 286.3 254 298.7 277 298.8C300 299 323 287 346 284C369 281 392 287 415.2 288.3C438.3 289.7 461.7 286.3 484.8 279.8C508 273.3 531 263.7 554 264C577 264.3 600 274.7 623 273.8C646 273 669 261 692.2 257.8C715.3 254.7 738.7 260.3 761.8 266.8C785 273.3 808 280.7 831 286.2C854 291.7 877 295.3 888.5 297.2L900 299L900 401L888.5 401C877 401 854 401 831 401C808 401 785 401 761.8 401C738.7 401 715.3 401 692.2 401C669 401 646 401 623 401C600 401 577 401 554 401C531 401 508 401 484.8 401C461.7 401 438.3 401 415.2 401C392 401 369 401 346 401C323 401 300 401 277 401C254 401 231 401 207.8 401C184.7 401 161.3 401 138.2 401C115 401 92 401 69 401C46 401 23 401 11.5 401L0 401Z" fill="#dadada"></path><path d="M0 323L11.5 317.5C23 312 46 301 69 299.2C92 297.3 115 304.7 138.2 313C161.3 321.3 184.7 330.7 207.8 329C231 327.3 254 314.7 277 307C300 299.3 323 296.7 346 302.7C369 308.7 392 323.3 415.2 327.7C438.3 332 461.7 326 484.8 323.3C508 320.7 531 321.3 554 317.7C577 314 600 306 623 304.7C646 303.3 669 308.7 692.2 310.7C715.3 312.7 738.7 311.3 761.8 308C785 304.7 808 299.3 831 303.3C854 307.3 877 320.7 888.5 327.3L900 334L900 401L888.5 401C877 401 854 401 831 401C808 401 785 401 761.8 401C738.7 401 715.3 401 692.2 401C669 401 646 401 623 401C600 401 577 401 554 401C531 401 508 401 484.8 401C461.7 401 438.3 401 415.2 401C392 401 369 401 346 401C323 401 300 401 277 401C254 401 231 401 207.8 401C184.7 401 161.3 401 138.2 401C115 401 92 401 69 401C46 401 23 401 11.5 401L0 401Z" fill="#d0d0d0"></path><path d="M0 370L11.5 366.5C23 363 46 356 69 355C92 354 115 359 138.2 358.7C161.3 358.3 184.7 352.7 207.8 351.8C231 351 254 355 277 358C300 361 323 363 346 363.2C369 363.3 392 361.7 415.2 362.5C438.3 363.3 461.7 366.7 484.8 363.3C508 360 531 350 554 347.5C577 345 600 350 623 354.8C646 359.7 669 364.3 692.2 366.7C715.3 369 738.7 369 761.8 365.3C785 361.7 808 354.3 831 350.5C854 346.7 877 346.3 888.5 346.2L900 346L900 401L888.5 401C877 401 854 401 831 401C808 401 785 401 761.8 401C738.7 401 715.3 401 692.2 401C669 401 646 401 623 401C600 401 577 401 554 401C531 401 508 401 484.8 401C461.7 401 438.3 401 415.2 401C392 401 369 401 346 401C323 401 300 401 277 401C254 401 231 401 207.8 401C184.7 401 161.3 401 138.2 401C115 401 92 401 69 401C46 401 23 401 11.5 401L0 401Z" fill="#c7c7c7"></path></svg>