<svg id="visual" viewBox="0 0 900 450" width="900" height="450" xmlns="http://www.w3.org/2000/svg" xmlns:xlink="http://www.w3.org/1999/xlink" version="1.1"><g transform="translate(445.2389108970124 259.8924107285108)"><path d="M152.8 -195.6C197.8 -177.6 233.9 -132.7 241.7 -84.3C249.5 -35.9 228.9 15.9 192.1 41.9C155.4 67.9 102.5 68.1 67.8 79.8C33.1 91.5 16.5 114.8 -15.1 135.6C-46.8 156.5 -93.7 174.9 -120.1 160.5C-146.6 146.1 -152.7 98.9 -172.6 52.6C-192.4 6.3 -226 -39 -232.6 -93.1C-239.2 -147.3 -218.8 -210.1 -175.5 -228.8C-132.3 -247.4 -66.1 -221.7 -6.1 -213.3C53.9 -204.8 107.8 -213.7 152.8 -195.6" fill="#2c2828"></path></g></svg>