<svg id="visual" viewBox="0 0 900 450" width="900" height="450" xmlns="http://www.w3.org/2000/svg" xmlns:xlink="http://www.w3.org/1999/xlink" version="1.1"><rect x="0" y="0" width="900" height="450" fill="#494949"></rect><defs><linearGradient id="grad1_0" x1="50%" y1="0%" x2="100%" y2="100%"><stop offset="10%" stop-color="#494949" stop-opacity="1"></stop><stop offset="90%" stop-color="#494949" stop-opacity="1"></stop></linearGradient></defs><defs><linearGradient id="grad2_0" x1="0%" y1="0%" x2="50%" y2="100%"><stop offset="10%" stop-color="#494949" stop-opacity="1"></stop><stop offset="90%" stop-color="#494949" stop-opacity="1"></stop></linearGradient></defs><g transform="translate(900, 0)"><path d="M0 180C-11.8 166.9 -23.5 153.7 -41.2 153.6C-58.8 153.4 -82.3 166.3 -90 155.9C-97.7 145.5 -89.7 111.9 -95.5 95.5C-101.2 79 -120.6 79.8 -123.8 71.5C-127.1 63.2 -114.1 45.8 -120.7 32.4C-127.4 18.9 -153.7 9.5 -180 0L0 0Z" fill="#070907"></path></g><g transform="translate(0, 450)"><path d="M0 -180C14 -171 28.1 -162 42.2 -157.4C56.3 -152.9 70.5 -152.9 86 -149C101.5 -145 118.3 -137.2 122.3 -122.3C126.3 -107.5 117.5 -85.6 126.4 -73C135.4 -60.4 162 -57.2 173.9 -46.6C185.7 -36 182.9 -18 180 0L0 0Z" fill="#070907"></path></g></svg>