<svg id="visual" viewBox="0 0 900 400" width="900" height="400" xmlns="http://www.w3.org/2000/svg" xmlns:xlink="http://www.w3.org/1999/xlink" version="1.1"><path d="M0 249L21.5 255.3C43 261.7 86 274.3 128.8 281.5C171.7 288.7 214.3 290.3 257.2 288C300 285.7 343 279.3 385.8 277.8C428.7 276.3 471.3 279.7 514.2 274.5C557 269.3 600 255.7 642.8 255.8C685.7 256 728.3 270 771.2 277.5C814 285 857 286 878.5 286.5L900 287L900 401L878.5 401C857 401 814 401 771.2 401C728.3 401 685.7 401 642.8 401C600 401 557 401 514.2 401C471.3 401 428.7 401 385.8 401C343 401 300 401 257.2 401C214.3 401 171.7 401 128.8 401C86 401 43 401 21.5 401L0 401Z" fill="#525252"></path><path d="M0 304L21.5 305.2C43 306.3 86 308.7 128.8 303.5C171.7 298.3 214.3 285.7 257.2 283C300 280.3 343 287.7 385.8 286.3C428.7 285 471.3 275 514.2 276.3C557 277.7 600 290.3 642.8 291.5C685.7 292.7 728.3 282.3 771.2 276.8C814 271.3 857 270.7 878.5 270.3L900 270L900 401L878.5 401C857 401 814 401 771.2 401C728.3 401 685.7 401 642.8 401C600 401 557 401 514.2 401C471.3 401 428.7 401 385.8 401C343 401 300 401 257.2 401C214.3 401 171.7 401 128.8 401C86 401 43 401 21.5 401L0 401Z" fill="#454545"></path><path d="M0 339L21.5 332.8C43 326.7 86 314.3 128.8 314.5C171.7 314.7 214.3 327.3 257.2 332.8C300 338.3 343 336.7 385.8 328.8C428.7 321 471.3 307 514.2 305C557 303 600 313 642.8 312.8C685.7 312.7 728.3 302.3 771.2 301.5C814 300.7 857 309.3 878.5 313.7L900 318L900 401L878.5 401C857 401 814 401 771.2 401C728.3 401 685.7 401 642.8 401C600 401 557 401 514.2 401C471.3 401 428.7 401 385.8 401C343 401 300 401 257.2 401C214.3 401 171.7 401 128.8 401C86 401 43 401 21.5 401L0 401Z" fill="#393939"></path><path d="M0 343L21.5 344.5C43 346 86 349 128.8 349.7C171.7 350.3 214.3 348.7 257.2 349.5C300 350.3 343 353.7 385.8 353.5C428.7 353.3 471.3 349.7 514.2 344.3C557 339 600 332 642.8 332C685.7 332 728.3 339 771.2 339.3C814 339.7 857 333.3 878.5 330.2L900 327L900 401L878.5 401C857 401 814 401 771.2 401C728.3 401 685.7 401 642.8 401C600 401 557 401 514.2 401C471.3 401 428.7 401 385.8 401C343 401 300 401 257.2 401C214.3 401 171.7 401 128.8 401C86 401 43 401 21.5 401L0 401Z" fill="#2d2d2d"></path><path d="M0 356L21.5 358.3C43 360.7 86 365.3 128.8 365.3C171.7 365.3 214.3 360.7 257.2 358.2C300 355.7 343 355.3 385.8 359.3C428.7 363.3 471.3 371.7 514.2 375.7C557 379.7 600 379.3 642.8 374.3C685.7 369.3 728.3 359.7 771.2 357.5C814 355.3 857 360.7 878.5 363.3L900 366L900 401L878.5 401C857 401 814 401 771.2 401C728.3 401 685.7 401 642.8 401C600 401 557 401 514.2 401C471.3 401 428.7 401 385.8 401C343 401 300 401 257.2 401C214.3 401 171.7 401 128.8 401C86 401 43 401 21.5 401L0 401Z" fill="#212121"></path></svg>