<svg width="64" height="64" viewBox="0 0 64 64" fill="none" xmlns="http://www.w3.org/2000/svg">
<circle cx="32" cy="32" r="32" fill="#16994C"/>
<path fill-rule="evenodd" clip-rule="evenodd" d="M32.7467 12.8143C22.4889 13.2066 14.2933 21.6462 14.2933 32C14.2933 42.3539 22.4889 50.7935 32.7467 51.1858C32.4989 51.1953 32.25 51.2001 32 51.2001C21.3961 51.2001 12.8 42.6039 12.8 32C12.8 21.3962 21.3961 12.8 32 12.8C32.25 12.8 32.4989 12.8048 32.7467 12.8143Z" fill="#47C57B"/>
<path fill-rule="evenodd" clip-rule="evenodd" d="M32 6.40002C45.0082 6.40002 55.7502 16.1021 57.3847 28.6648L47.1467 35.6267H26.88L16.5271 28.5867H50.8975C49.287 19.6112 41.4389 12.8 32 12.8C21.3961 12.8 12.8 21.3961 12.8 32C12.8 42.6039 21.3961 51.2 32 51.2C38.1547 51.2 43.633 48.3041 47.1467 43.8005V52.6404C42.9052 55.7582 37.6677 57.6 32 57.6C17.8615 57.6 6.40002 46.1385 6.40002 32C6.40002 17.8615 17.8615 6.40002 32 6.40002ZM16.2133 28.5867H16.2133V35.6267H16.2133V28.5867Z" fill="white"/>
</svg>
